<svg version="1.1" xmlns="http://www.w3.org/2000/svg" viewBox="0 0 500 500">
<path fill="#F6F6F6" opacity="1.000000" stroke="none" 
	d="
M385.424805,326.452728 
	C392.924988,338.431946 400.223633,350.108490 407.627197,361.952881 
	C399.433655,366.994202 391.021027,366.214905 383.048065,366.242218 
	C345.398590,366.371338 307.747040,365.822937 270.097168,365.911896 
	C246.794739,365.966919 223.495621,366.896454 200.191986,367.122070 
	C182.041229,367.297821 163.885910,366.968109 145.732468,366.909515 
	C130.748764,366.861145 115.763916,366.975037 100.781425,366.827637 
	C94.050758,366.761414 92.889214,365.400543 95.863678,359.422089 
	C102.007446,347.073425 108.695206,334.986267 115.435776,322.946381 
	C121.610748,311.916779 128.371643,301.213287 134.470291,290.143463 
	C141.604248,277.194397 148.123779,263.907440 155.224899,250.939590 
	C168.815018,226.121811 182.519791,201.365250 196.383820,176.699539 
	C206.825058,158.123352 217.786057,139.838013 228.134109,121.211220 
	C234.184540,110.320282 239.451843,98.995682 245.152771,87.907974 
	C246.277908,85.719688 247.774780,83.722511 250.043198,80.153633 
	C255.781403,89.710655 261.301117,98.121803 266.048309,106.948433 
	C284.569122,141.384903 302.629028,176.070419 321.297028,210.426071 
	C331.779480,229.717438 343.367706,248.405441 353.998627,267.619324 
	C364.702911,286.965729 374.838531,306.626831 385.424805,326.452728 
M237.773819,130.360397 
	C230.892700,143.091324 224.008636,155.820663 217.130951,168.553436 
	C190.495697,217.863739 163.843140,267.164764 137.244598,316.494843 
	C131.882828,326.438904 126.414360,336.346375 121.591255,346.552429 
	C118.468414,353.160553 119.309639,353.982025 126.503456,354.039490 
	C152.307281,354.245605 178.112610,354.649017 203.915146,354.522888 
	C229.879150,354.395935 255.839203,353.516052 281.803406,353.353729 
	C308.116272,353.189240 334.432281,353.590851 360.746521,353.541229 
	C367.979645,353.527618 375.211365,352.786163 383.231873,352.334290 
	C381.977570,349.479858 381.287323,347.457825 380.255096,345.628815 
	C367.995087,323.905609 355.536591,302.292755 343.462036,280.467377 
	C338.882904,272.190369 335.518890,263.243042 330.972656,254.945526 
	C319.060669,233.204422 306.437592,211.847244 294.789581,189.968826 
	C284.082581,169.857895 274.394073,149.207153 264.013702,128.918625 
	C260.106598,121.282127 255.516159,113.995232 251.237244,106.548958 
	C250.678589,106.587379 250.119949,106.625793 249.561295,106.664215 
	C245.743011,114.341370 241.924744,122.018517 237.773819,130.360397 
z"/>
<path fill="#F8F8F8" opacity="1.000000" stroke="none" 
	d="
M225.101395,291.907532 
	C223.465820,291.907501 222.201965,292.194244 221.156296,291.838898 
	C219.663300,291.331512 217.588776,290.658112 217.114120,289.501129 
	C216.505264,288.017090 216.590729,285.506714 217.502899,284.266815 
	C221.742310,278.504211 226.646332,273.222443 230.770355,267.385559 
	C233.912888,262.937866 237.187286,260.406616 243.049744,263.380066 
	C243.049744,270.230103 243.049744,277.496796 243.049744,285.035736 
	C245.328751,285.186707 247.242706,285.313507 249.110275,285.437225 
	C250.452087,291.192108 250.164673,291.538544 243.754883,292.180145 
	C239.906403,297.060944 247.986557,296.783264 247.337494,300.680847 
	C240.391556,300.680847 233.561447,300.680847 226.467941,300.680847 
	C226.819641,296.168701 235.315872,298.450562 232.731674,291.907532 
	C230.506866,291.907532 228.038712,291.907532 225.101395,291.907532 
M228.869980,285.890930 
	C230.258682,285.781891 231.647369,285.672852 232.654846,285.593750 
	C232.654846,281.767578 232.654846,278.486755 232.654846,274.176117 
	C229.694733,278.561523 227.372787,282.001465 224.739197,285.903168 
	C226.412628,285.903168 227.221832,285.903168 228.869980,285.890930 
z"/>
<path fill="#F8F8F8" opacity="1.000000" stroke="none" 
	d="
M279.982910,285.156982 
	C282.048126,285.300659 283.677673,285.300659 285.300751,285.300659 
	C287.090363,291.136444 284.265350,292.561737 279.343750,291.852844 
	C279.343750,293.618530 279.343750,294.906616 279.343750,296.241943 
	C280.770599,297.286530 282.303009,298.408417 283.835419,299.530304 
	C283.604340,299.890350 283.373230,300.250427 283.142151,300.610474 
	C276.308105,300.610474 269.474060,300.610474 262.424377,300.610474 
	C262.966309,296.216614 271.280212,298.392242 268.707886,291.907349 
	C264.824646,291.907349 260.833679,292.080536 256.872925,291.810577 
	C255.541550,291.719849 253.549179,290.772247 253.169678,289.736145 
	C252.595596,288.168945 252.470779,285.656738 253.370361,284.458466 
	C258.666290,277.404083 264.040741,270.360504 270.025085,263.902985 
	C271.640076,262.160248 275.464539,262.465057 279.547241,261.542480 
	C279.547241,270.231873 279.547241,277.622589 279.982910,285.156982 
M269.020416,282.431427 
	C269.020416,280.046539 269.020416,277.661652 269.020416,275.276764 
	C268.696106,275.212585 268.371796,275.148407 268.047455,275.084229 
	C265.713318,278.535217 263.379211,281.986206 261.045074,285.437195 
	C263.955841,284.637482 267.965759,288.441895 269.020416,282.431427 
z"/>
</svg>